{
	"asset":{
		"generator":"Khronos glTF Blender I/O v4.2.57",
		"version":"2.0"
	},
	"scene":0,
	"scenes":[
		{
			"name":"Scene",
			"nodes":[
				0,
				1,
				2
			]
		}
	],
	"nodes":[
		{
			"camera":0,
			"name":"Camera",
			"rotation":[
				-0.20997299253940582,
				0.3857799470424652,
				0.09062844514846802,
				0.8937962055206299
			],
			"translation":[
				7.358891487121582,
				4.958309173583984,
				6.925790786743164
			]
		},
		{
			"mesh":0,
			"name":"Suzanne",
			"rotation":[
				0,
				0.39927300810813904,
				0,
				0.9168320894241333
			]
		},
		{
			"mesh":1,
			"name":"Sphere",
			"scale":[
				0.8426764011383057,
				1.2303731441497803,
				0.8710839748382568
			],
			"translation":[
				-0.04261493682861328,
				1.7646607160568237,
				0.0027959346771240234
			]
		}
	],
	"cameras":[
		{
			"name":"Camera",
			"perspective":{
				"aspectRatio":1.7777777777777777,
				"yfov":0.4710899591445923,
				"zfar":100,
				"znear":0.10000000149011612
			},
			"type":"perspective"
		}
	],
	"animations":[
		{
			"channels":[
				{
					"sampler":0,
					"target":{
						"node":2,
						"path":"translation"
					}
				},
				{
					"sampler":1,
					"target":{
						"node":2,
						"path":"rotation"
					}
				},
				{
					"sampler":2,
					"target":{
						"node":2,
						"path":"scale"
					}
				}
			],
			"name":"SphereAction",
			"samplers":[
				{
					"input":8,
					"interpolation":"LINEAR",
					"output":9
				},
				{
					"input":8,
					"interpolation":"LINEAR",
					"output":10
				},
				{
					"input":8,
					"interpolation":"LINEAR",
					"output":11
				}
			]
		}
	],
	"materials":[
		{
			"doubleSided":true,
			"name":"Material.001",
			"pbrMetallicRoughness":{
				"baseColorFactor":[
					0.013649391010403633,
					0.8000000715255737,
					0,
					1
				],
				"metallicFactor":0,
				"roughnessFactor":0.5
			}
		}
	],
	"meshes":[
		{
			"name":"Suzanne",
			"primitives":[
				{
					"attributes":{
						"POSITION":0,
						"NORMAL":1,
						"TEXCOORD_0":2
					},
					"indices":3,
					"material":0
				}
			]
		},
		{
			"name":"Sphere",
			"primitives":[
				{
					"attributes":{
						"POSITION":4,
						"NORMAL":5,
						"TEXCOORD_0":6
					},
					"indices":7
				}
			]
		}
	],
	"accessors":[
		{
			"bufferView":0,
			"componentType":5126,
			"count":556,
			"max":[
				1.3671875,
				0.984375,
				0.8515625
			],
			"min":[
				-1.3671875,
				-0.984375,
				-0.8515625
			],
			"type":"VEC3"
		},
		{
			"bufferView":1,
			"componentType":5126,
			"count":556,
			"type":"VEC3"
		},
		{
			"bufferView":2,
			"componentType":5126,
			"count":556,
			"type":"VEC2"
		},
		{
			"bufferView":3,
			"componentType":5123,
			"count":2904,
			"type":"SCALAR"
		},
		{
			"bufferView":4,
			"componentType":5126,
			"count":1984,
			"max":[
				1.491981029510498,
				1.4919815063476562,
				1.4919805526733398
			],
			"min":[
				-1.4919800758361816,
				-1.4919815063476562,
				-1.4919815063476562
			],
			"type":"VEC3"
		},
		{
			"bufferView":5,
			"componentType":5126,
			"count":1984,
			"type":"VEC3"
		},
		{
			"bufferView":6,
			"componentType":5126,
			"count":1984,
			"type":"VEC2"
		},
		{
			"bufferView":7,
			"componentType":5123,
			"count":2880,
			"type":"SCALAR"
		},
		{
			"bufferView":8,
			"componentType":5126,
			"count":20,
			"max":[
				0.8333333333333334
			],
			"min":[
				0.041666666666666664
			],
			"type":"SCALAR"
		},
		{
			"bufferView":9,
			"componentType":5126,
			"count":20,
			"type":"VEC3"
		},
		{
			"bufferView":10,
			"componentType":5126,
			"count":20,
			"type":"VEC4"
		},
		{
			"bufferView":11,
			"componentType":5126,
			"count":20,
			"type":"VEC3"
		}
	],
	"bufferViews":[
		{
			"buffer":0,
			"byteLength":6672,
			"byteOffset":0,
			"target":34962
		},
		{
			"buffer":0,
			"byteLength":6672,
			"byteOffset":6672,
			"target":34962
		},
		{
			"buffer":0,
			"byteLength":4448,
			"byteOffset":13344,
			"target":34962
		},
		{
			"buffer":0,
			"byteLength":5808,
			"byteOffset":17792,
			"target":34963
		},
		{
			"buffer":0,
			"byteLength":23808,
			"byteOffset":23600,
			"target":34962
		},
		{
			"buffer":0,
			"byteLength":23808,
			"byteOffset":47408,
			"target":34962
		},
		{
			"buffer":0,
			"byteLength":15872,
			"byteOffset":71216,
			"target":34962
		},
		{
			"buffer":0,
			"byteLength":5760,
			"byteOffset":87088,
			"target":34963
		},
		{
			"buffer":0,
			"byteLength":80,
			"byteOffset":92848
		},
		{
			"buffer":0,
			"byteLength":240,
			"byteOffset":92928
		},
		{
			"buffer":0,
			"byteLength":320,
			"byteOffset":93168
		},
		{
			"buffer":0,
			"byteLength":240,
			"byteOffset":93488
		}
	],
	"buffers":[
		{
			"byteLength":93728,
			"uri":"suzanne-2.bin"
		}
	]
}
