{
	"asset":{
		"generator":"Khronos glTF Blender I/O v4.2.57",
		"version":"2.0"
	},
	"scene":0,
	"scenes":[
		{
			"name":"Scene",
			"nodes":[
				0
			]
		}
	],
	"nodes":[
		{
			"mesh":0,
			"name":"Sphere",
			"scale":[
				0.8426764011383057,
				1.2303731441497803,
				0.8710839748382568
			],
			"translation":[
				-0.04261493682861328,
				1.7646607160568237,
				0.0027959346771240234
			]
		}
	],
	"animations":[
		{
			"channels":[
				{
					"sampler":0,
					"target":{
						"node":0,
						"path":"translation"
					}
				},
				{
					"sampler":1,
					"target":{
						"node":0,
						"path":"rotation"
					}
				},
				{
					"sampler":2,
					"target":{
						"node":0,
						"path":"scale"
					}
				}
			],
			"name":"SphereAction",
			"samplers":[
				{
					"input":4,
					"interpolation":"LINEAR",
					"output":5
				},
				{
					"input":4,
					"interpolation":"LINEAR",
					"output":6
				},
				{
					"input":4,
					"interpolation":"LINEAR",
					"output":7
				}
			]
		}
	],
	"meshes":[
		{
			"name":"Sphere",
			"primitives":[
				{
					"attributes":{
						"POSITION":0,
						"NORMAL":1,
						"TEXCOORD_0":2
					},
					"indices":3
				}
			]
		}
	],
	"accessors":[
		{
			"bufferView":0,
			"componentType":5126,
			"count":1984,
			"max":[
				1.491981029510498,
				1.4919815063476562,
				1.4919805526733398
			],
			"min":[
				-1.4919800758361816,
				-1.4919815063476562,
				-1.4919815063476562
			],
			"type":"VEC3"
		},
		{
			"bufferView":1,
			"componentType":5126,
			"count":1984,
			"type":"VEC3"
		},
		{
			"bufferView":2,
			"componentType":5126,
			"count":1984,
			"type":"VEC2"
		},
		{
			"bufferView":3,
			"componentType":5123,
			"count":2880,
			"type":"SCALAR"
		},
		{
			"bufferView":4,
			"componentType":5126,
			"count":20,
			"max":[
				0.8333333333333334
			],
			"min":[
				0.041666666666666664
			],
			"type":"SCALAR"
		},
		{
			"bufferView":5,
			"componentType":5126,
			"count":20,
			"type":"VEC3"
		},
		{
			"bufferView":6,
			"componentType":5126,
			"count":20,
			"type":"VEC4"
		},
		{
			"bufferView":7,
			"componentType":5126,
			"count":20,
			"type":"VEC3"
		}
	],
	"bufferViews":[
		{
			"buffer":0,
			"byteLength":23808,
			"byteOffset":0,
			"target":34962
		},
		{
			"buffer":0,
			"byteLength":23808,
			"byteOffset":23808,
			"target":34962
		},
		{
			"buffer":0,
			"byteLength":15872,
			"byteOffset":47616,
			"target":34962
		},
		{
			"buffer":0,
			"byteLength":5760,
			"byteOffset":63488,
			"target":34963
		},
		{
			"buffer":0,
			"byteLength":80,
			"byteOffset":69248
		},
		{
			"buffer":0,
			"byteLength":240,
			"byteOffset":69328
		},
		{
			"buffer":0,
			"byteLength":320,
			"byteOffset":69568
		},
		{
			"buffer":0,
			"byteLength":240,
			"byteOffset":69888
		}
	],
	"buffers":[
		{
			"byteLength":70128,
			"uri":"VBUS105%202.7%20-%20Bouncing%20Ball%20-%20Joe-Rhoney.bin"
		}
	]
}
